<?xml version="1.0" standalone="no"?>
<!DOCTYPE svg PUBLIC "-//W3C//DTD SVG 20010904//EN"
 "http://www.w3.org/TR/2001/REC-SVG-20010904/DTD/svg10.dtd">
<svg version="1.0" xmlns="http://www.w3.org/2000/svg"
 width="700.000000pt" height="700.000000pt" viewBox="0 0 700.000000 700.000000"
 preserveAspectRatio="xMidYMid meet">
<metadata>
Created by potrace 1.14, written by Peter Selinger 2001-2017
</metadata>
<g transform="translate(0.000000,700.000000) scale(0.100000,-0.100000)"
fill="#000000" stroke="none">
<path d="M960 6633 c-244 -26 -454 -182 -547 -408 -50 -121 -47 13 -47 -2730
0 -2418 1 -2574 18 -2634 64 -234 243 -413 477 -477 60 -17 212 -18 2614 -18
1403 0 2573 3 2600 6 256 33 473 231 541 493 17 67 18 189 18 2635 0 2453 -1
2568 -18 2635 -44 167 -136 297 -276 391 -49 33 -148 78 -195 88 -17 3 -41 9
-55 13 -23 5 -5075 11 -5130 6z m2320 -458 c3 -186 -1 -2449 -4 -2452 -6 -6
-2453 -6 -2464 1 -13 8 -12 2280 2 2325 15 50 92 126 142 138 24 6 463 10
1182 9 1140 0 1142 0 1142 -21z m2788 3 c53 -25 107 -87 120 -137 10 -43 11
-2305 0 -2316 -7 -7 -2457 -10 -2464 -2 -6 6 -6 2455 0 2465 2 4 521 8 1153 9
1130 1 1149 0 1191 -19z m-2803 -2898 c20 0 20 -6 18 -1157 -1 -637 -3 -1194
-3 -1239 l0 -80 -1141 -1 c-721 0 -1155 3 -1180 10 -21 5 -59 27 -84 49 -78
69 -74 -5 -72 1280 l1 1137 135 3 c105 2 2233 1 2326 -2z m2911 0 l20 0 1
-1147 c0 -798 -3 -1157 -11 -1182 -15 -52 -92 -125 -144 -138 -28 -7 -404 -10
-1182 -10 l-1140 1 0 163 c0 90 0 624 0 1188 0 564 0 1047 0 1075 l0 49 58 3
c40 2 2183 1 2398 -2z"/>
<path d="M1954 5741 c-22 -10 -55 -34 -73 -52 -49 -52 -60 -109 -60 -304 0
-93 0 -178 0 -187 -1 -15 -23 -17 -213 -20 -213 -3 -213 -3 -261 -31 -149 -88
-140 -311 17 -387 41 -19 60 -21 250 -21 113 0 206 -3 207 -7 0 -4 1 -99 2
-212 2 -203 2 -205 29 -251 42 -71 119 -115 197 -112 88 4 179 73 201 152 5
20 10 125 10 233 l0 198 204 0 c223 -1 253 5 309 58 93 88 95 229 3 317 -60
58 -93 65 -320 65 l-196 0 0 203 c0 191 -2 205 -24 252 -49 106 -176 154 -282
106z"/>
<path d="M4308 5164 c-124 -43 -182 -170 -133 -292 20 -50 84 -108 134 -122
22 -6 278 -10 657 -10 l620 0 55 28 c172 87 149 345 -36 396 -71 20 -1241 20
-1297 0z"/>
<path d="M1532 2684 c-94 -39 -145 -111 -144 -203 0 -34 7 -73 17 -92 9 -19
87 -104 172 -190 l156 -157 -155 -156 c-86 -86 -163 -172 -173 -192 -34 -73
-16 -182 43 -244 57 -61 173 -80 249 -41 22 11 109 88 192 172 l153 152 156
-155 c87 -86 168 -162 182 -169 102 -52 239 -8 292 94 32 61 30 150 -5 208
-14 24 -91 109 -170 188 l-145 144 154 155 c85 85 161 167 169 183 41 79 22
183 -45 249 -66 67 -170 86 -249 46 -15 -8 -97 -84 -183 -169 l-155 -155 -144
145 c-79 79 -163 155 -186 169 -50 30 -133 39 -181 18z"/>
<path d="M4307 2685 c-122 -42 -180 -172 -132 -293 21 -52 82 -106 138 -121
30 -9 215 -11 668 -9 l626 3 48 30 c70 43 109 118 102 196 -5 63 -23 102 -63
143 -65 64 -27 61 -719 63 -494 1 -638 -2 -668 -12z"/>
<path d="M4360 1820 c-68 -7 -108 -28 -153 -80 -54 -63 -64 -144 -29 -223 26
-56 49 -80 102 -108 l45 -24 635 1 c593 0 637 1 670 18 77 40 115 92 125 172
13 96 -33 182 -121 224 -46 23 -48 23 -632 24 -323 0 -612 -1 -642 -4z"/>
</g>
</svg>
