<svg width="24" height="24" viewBox="0 0 24 24" fill="none" xmlns="http://www.w3.org/2000/svg">
<path fill-rule="evenodd" clip-rule="evenodd" d="M5.5 16.7499C4.5335 16.7499 3.75 17.5334 3.75 18.4999C3.75 19.4664 4.5335 20.2499 5.5 20.2499C6.4665 20.2499 7.25 19.4664 7.25 18.4999C7.25 17.5334 6.4665 16.7499 5.5 16.7499ZM2.25 18.4999C2.25 16.705 3.70507 15.2499 5.5 15.2499C7.29493 15.2499 8.75 16.705 8.75 18.4999C8.75 20.2949 7.29493 21.7499 5.5 21.7499C3.70507 21.7499 2.25 20.2949 2.25 18.4999Z" fill="#1C1B1F"/>
<path fill-rule="evenodd" clip-rule="evenodd" d="M18.5 16.7499C17.5335 16.7499 16.75 17.5334 16.75 18.4999C16.75 19.4664 17.5335 20.2499 18.5 20.2499C19.4665 20.2499 20.25 19.4664 20.25 18.4999C20.25 17.5334 19.4665 16.7499 18.5 16.7499ZM15.25 18.4999C15.25 16.705 16.7051 15.2499 18.5 15.2499C20.2949 15.2499 21.75 16.705 21.75 18.4999C21.75 20.2949 20.2949 21.7499 18.5 21.7499C16.7051 21.7499 15.25 20.2949 15.25 18.4999Z" fill="#1C1B1F"/>
<path fill-rule="evenodd" clip-rule="evenodd" d="M7.30748 20.3524C6.95075 20.1419 6.83223 19.682 7.04275 19.3253L8.10227 17.5299L16.6005 2.8106C16.8076 2.45189 17.2663 2.32898 17.625 2.53609C17.9837 2.74319 18.1066 3.20188 17.8995 3.5606L9.39594 18.2892L8.33457 20.0877C8.12405 20.4444 7.66421 20.5629 7.30748 20.3524Z" fill="#1C1B1F"/>
<path fill-rule="evenodd" clip-rule="evenodd" d="M6.37284 2.43801C6.73156 2.2309 7.19026 2.35381 7.39736 2.71253L15.9018 17.4426L16.9671 19.3392C17.17 19.7003 17.0417 20.1575 16.6806 20.3604C16.3194 20.5632 15.8622 20.4349 15.6593 20.0738L14.5961 18.1811L6.09833 3.46253C5.89122 3.10381 6.01412 2.64512 6.37284 2.43801Z" fill="#1C1B1F"/>
</svg>
