<svg width="24" height="24" viewBox="0 0 24 24" fill="none" xmlns="http://www.w3.org/2000/svg">
<path fill-rule="evenodd" clip-rule="evenodd" d="M1.25 12.25C1.25 6.17487 6.17487 1.25 12.25 1.25C15.1573 1.25 17.8026 2.37887 19.7688 4.22075C19.9172 4.35979 20.0028 4.55314 20.0059 4.75649C20.0091 4.95984 19.9295 5.15575 19.7855 5.29931L13.0583 12.0041L19.9859 19.0159C20.1257 19.1574 20.2036 19.3487 20.2024 19.5476C20.2011 19.7466 20.1209 19.9369 19.9794 20.0766C17.9936 22.038 15.2626 23.25 12.25 23.25C6.17487 23.25 1.25 18.3251 1.25 12.25ZM12.25 2.75C7.00329 2.75 2.75 7.00329 2.75 12.25C2.75 17.4967 7.00329 21.75 12.25 21.75C14.5823 21.75 16.7173 20.9103 18.3709 19.5156L11.4665 12.5271C11.1763 12.2334 11.1781 11.7603 11.4706 11.4688L18.1544 4.80716C16.5328 3.51886 14.4819 2.75 12.25 2.75Z" fill="#1C1B1F"/>
<path fill-rule="evenodd" clip-rule="evenodd" d="M20 10.75C19.3096 10.75 18.75 11.3096 18.75 12C18.75 12.6904 19.3096 13.25 20 13.25C20.6904 13.25 21.25 12.6904 21.25 12C21.25 11.3096 20.6904 10.75 20 10.75ZM17.25 12C17.25 10.4812 18.4812 9.25 20 9.25C21.5188 9.25 22.75 10.4812 22.75 12C22.75 13.5188 21.5188 14.75 20 14.75C18.4812 14.75 17.25 13.5188 17.25 12Z" fill="#1C1B1F"/>
<path fill-rule="evenodd" clip-rule="evenodd" d="M8.5 5.75C8.91421 5.75 9.25 6.08579 9.25 6.5V10.5C9.25 10.9142 8.91421 11.25 8.5 11.25C8.08579 11.25 7.75 10.9142 7.75 10.5V6.5C7.75 6.08579 8.08579 5.75 8.5 5.75Z" fill="#1C1B1F"/>
<path fill-rule="evenodd" clip-rule="evenodd" d="M5.75 8.5C5.75 8.08579 6.08579 7.75 6.5 7.75H10.5C10.9142 7.75 11.25 8.08579 11.25 8.5C11.25 8.91421 10.9142 9.25 10.5 9.25H6.5C6.08579 9.25 5.75 8.91421 5.75 8.5Z" fill="#1C1B1F"/>
</svg>
