<svg width="24" height="24" viewBox="0 0 24 24" fill="none" xmlns="http://www.w3.org/2000/svg">
<path fill-rule="evenodd" clip-rule="evenodd" d="M1.25 10.5C1.25 10.0858 1.58579 9.75 2 9.75H6C6.41421 9.75 6.75 10.0858 6.75 10.5V17.5C6.75 17.9142 6.41421 18.25 6 18.25H2C1.58579 18.25 1.25 17.9142 1.25 17.5V10.5ZM2.75 11.25V16.75H5.25V11.25H2.75Z" fill="#1C1B1F"/>
<path fill-rule="evenodd" clip-rule="evenodd" d="M17.25 10.5C17.25 10.0858 17.5858 9.75 18 9.75H22C22.4142 9.75 22.75 10.0858 22.75 10.5V17.5C22.75 17.9142 22.4142 18.25 22 18.25H18C17.5858 18.25 17.25 17.9142 17.25 17.5V10.5ZM18.75 11.25V16.75H21.25V11.25H18.75Z" fill="#1C1B1F"/>
<path fill-rule="evenodd" clip-rule="evenodd" d="M5.25 13.5C5.25 13.0858 5.58579 12.75 6 12.75H18C18.4142 12.75 18.75 13.0858 18.75 13.5V17.5C18.75 17.9142 18.4142 18.25 18 18.25H6C5.58579 18.25 5.25 17.9142 5.25 17.5V13.5ZM6.75 14.25V16.75H17.25V14.25H6.75Z" fill="#1C1B1F"/>
<path fill-rule="evenodd" clip-rule="evenodd" d="M3.25 4C3.25 3.58579 3.58579 3.25 4 3.25H20C20.4142 3.25 20.75 3.58579 20.75 4V10C20.75 10.4142 20.4142 10.75 20 10.75C19.5858 10.75 19.25 10.4142 19.25 10V4.75H4.75V10C4.75 10.4142 4.41421 10.75 4 10.75C3.58579 10.75 3.25 10.4142 3.25 10V4Z" fill="#1C1B1F"/>
<path fill-rule="evenodd" clip-rule="evenodd" d="M4 17.25C4.41421 17.25 4.75 17.5858 4.75 18V20C4.75 20.4142 4.41421 20.75 4 20.75C3.58579 20.75 3.25 20.4142 3.25 20V18C3.25 17.5858 3.58579 17.25 4 17.25Z" fill="#1C1B1F"/>
<path fill-rule="evenodd" clip-rule="evenodd" d="M20 17.25C20.4142 17.25 20.75 17.5858 20.75 18V20C20.75 20.4142 20.4142 20.75 20 20.75C19.5858 20.75 19.25 20.4142 19.25 20V18C19.25 17.5858 19.5858 17.25 20 17.25Z" fill="#1C1B1F"/>
</svg>
