<svg width="24" height="24" viewBox="0 0 24 24" fill="none" xmlns="http://www.w3.org/2000/svg">
<path d="M13.9997 3.50001C13.9997 3.50001 11.9996 6.75001 10.4997 12C8.9998 17.25 8.9998 21 8.9998 21M13.9997 3.50001C13.9997 3.50001 8.897 4.42177 7.49995 8.50001M13.9997 3.50001C13.9997 3.50001 16.9999 6.50001 15.4998 11M13.9997 3.50001C14.4997 3.50001 15.4999 3.00001 15.9072 2.2099M4.99995 21.5C4.99995 21.5 9.49995 20.75 12.9999 20.75C16.4999 20.75 19.4999 21 19.4999 21M16.9999 20.5C16.9999 19.6716 16.4999 18.5 14.9999 18.5C13.4999 18.5 12.9999 19.6716 12.9999 20.5M20.0515 12.9086C19.6033 14.05 15.2153 14.4128 10.6808 13.1978C6.1464 11.9828 3.29135 9.77621 3.6308 8.50866C4.39766 5.64671 8.48715 1.23118 14.3355 3.3444C20.1839 5.45761 20.8184 10.0466 20.0515 12.9086Z" stroke="#1C1B1F" stroke-width="1.5" stroke-linecap="round" stroke-linejoin="round"/>
</svg>
