<svg width="24" height="24" viewBox="0 0 24 24" fill="none" xmlns="http://www.w3.org/2000/svg">
<path fill-rule="evenodd" clip-rule="evenodd" d="M1.34402 17.6364C1.47619 17.398 1.72736 17.25 2 17.25H22C22.2726 17.25 22.5238 17.398 22.656 17.6364C22.7882 17.8749 22.7805 18.1663 22.636 18.3975L20.136 22.3975C19.9989 22.6168 19.7586 22.75 19.5 22.75H4.5C4.24141 22.75 4.00106 22.6168 3.864 22.3975L1.364 18.3975C1.2195 18.1663 1.21185 17.8749 1.34402 17.6364ZM3.35319 18.75L4.91569 21.25H19.0843L20.6468 18.75H3.35319Z" fill="#1C1B1F"/>
<path fill-rule="evenodd" clip-rule="evenodd" d="M14.6777 6.55891C15.5003 6.21256 16.4537 6.23454 17.416 6.8761C18.4117 7.53991 18.769 8.50167 18.6847 9.47136C18.6251 10.1568 18.3503 10.8262 17.9826 11.411C18.1129 11.5659 18.2539 11.7573 18.3931 11.9893C18.8402 12.7343 19.25 13.8683 19.25 15.5001V18.0001C19.25 18.4144 18.9142 18.7501 18.5 18.7501H5.5C5.08579 18.7501 4.75 18.4144 4.75 18.0001V15.0001C4.75 12.9848 5.29049 11.4715 6.15876 10.359C7.02141 9.25373 8.15962 8.60532 9.25619 8.22838C10.3501 7.85235 11.4303 7.73633 12.2266 7.71144C12.6076 7.69954 12.9294 7.70834 13.1642 7.72109C13.5525 7.27012 14.0594 6.81925 14.6777 6.55891ZM13.4066 9.24432L13.3951 9.24301C13.3838 9.24177 13.3653 9.23983 13.3402 9.23747C13.2898 9.23274 13.2127 9.22636 13.1128 9.22056C12.9127 9.20895 12.6228 9.19979 12.2734 9.21071C11.5697 9.2327 10.6499 9.33543 9.74381 9.64691C8.84038 9.95746 7.97859 10.4653 7.34124 11.2819C6.70952 12.0913 6.25 13.2655 6.25 15.0001V17.2501H17.75V15.5001C17.75 14.1319 17.4098 13.266 17.1069 12.761C16.9537 12.5056 16.8052 12.3348 16.704 12.2336C16.6534 12.1829 16.6144 12.1496 16.5926 12.1319C16.5829 12.1241 16.5766 12.1193 16.5741 12.1175C16.4046 12.0006 16.2905 11.819 16.2589 11.6152C16.2266 11.4075 16.283 11.1958 16.4143 11.0316C16.8584 10.4765 17.1449 9.86349 17.1903 9.34142C17.231 8.87361 17.0883 8.46037 16.584 8.12418C16.0463 7.76574 15.6247 7.78772 15.2598 7.94137C14.8422 8.11718 14.4395 8.49751 14.1 8.95014C13.9387 9.16514 13.6748 9.2774 13.4081 9.24449C13.4081 9.24449 13.4082 9.2445 13.4081 9.24449C13.4079 9.24447 13.4068 9.24434 13.4066 9.24432Z" fill="#1C1B1F"/>
<path fill-rule="evenodd" clip-rule="evenodd" d="M10.8468 12.6649C11.209 12.4762 11.3541 12.0312 11.1708 11.6645C10.9856 11.2941 10.5351 11.1439 10.1646 11.3291L10.5 11.9999C10.1646 11.3291 10.1649 11.329 10.1646 11.3291L10.1635 11.3297L10.1624 11.3302L10.16 11.3314L10.1547 11.3341L10.1419 11.3409C10.1324 11.3459 10.121 11.3522 10.1078 11.3596C10.0814 11.3746 10.048 11.3945 10.0085 11.4198C9.92953 11.4706 9.8263 11.5434 9.70736 11.6425C9.46902 11.8411 9.16916 12.1441 8.87596 12.5839C8.5625 13.0541 8.4076 13.5209 8.33036 13.8685C8.29152 14.0433 8.27153 14.1914 8.26119 14.2999C8.25601 14.3543 8.25322 14.3992 8.25172 14.433C8.25097 14.4498 8.25054 14.464 8.2503 14.4752L8.25006 14.4898L8.25001 14.4955L8.25 14.4978L8.25 14.4989C8.25 14.4992 8.25 14.4999 9 14.4999H8.25C8.25 14.9142 8.58579 15.2499 9 15.2499C9.41188 15.2499 9.74622 14.9179 9.74997 14.5069L9.75024 14.4996C9.75069 14.4894 9.7518 14.4698 9.75443 14.4421C9.75972 14.3866 9.77098 14.3004 9.79464 14.1939C9.8424 13.979 9.9375 13.6958 10.124 13.416C10.3308 13.1058 10.531 12.9087 10.6676 12.7949C10.7362 12.7377 10.7892 12.7012 10.8196 12.6816C10.8341 12.6723 10.8434 12.6669 10.8468 12.6649Z" fill="#1C1B1F"/>
<path fill-rule="evenodd" clip-rule="evenodd" d="M16.4238 7.01978L18.9238 4.0198L20.0762 4.98004L17.5762 7.98005L16.4238 7.01978Z" fill="#1C1B1F"/>
<path d="M18.4596 4.76436C19.0246 5.16104 19.8042 5.02458 20.2009 4.45957C20.5976 3.89456 20.4611 3.11495 19.8961 2.71827C19.3311 2.3216 18.5515 2.45805 18.1548 3.02307C17.7581 3.58808 17.8946 4.36768 18.4596 4.76436Z" fill="#1C1B1F"/>
<path d="M19.6874 5.62618C20.2524 6.02285 21.032 5.8864 21.4287 5.32138C21.8253 4.75637 21.6889 3.97677 21.1239 3.58009C20.5589 3.18341 19.7793 3.31987 19.3826 3.88488C18.9859 4.44989 19.1224 5.2295 19.6874 5.62618Z" fill="#1C1B1F"/>
</svg>
