<svg width="24" height="24" viewBox="0 0 24 24" fill="none" xmlns="http://www.w3.org/2000/svg">
<path fill-rule="evenodd" clip-rule="evenodd" d="M17.25 6C17.25 5.58579 17.5858 5.25 18 5.25H22C22.4142 5.25 22.75 5.58579 22.75 6V22C22.75 22.4142 22.4142 22.75 22 22.75H6C5.58579 22.75 5.25 22.4142 5.25 22V18C5.25 17.5858 5.58579 17.25 6 17.25H9.25V14C9.25 13.5858 9.58579 13.25 10 13.25H13.25V10C13.25 9.58579 13.5858 9.25 14 9.25H17.25V6ZM18.75 6.75V10C18.75 10.4142 18.4142 10.75 18 10.75H14.75V14C14.75 14.4142 14.4142 14.75 14 14.75H10.75V18C10.75 18.4142 10.4142 18.75 10 18.75H6.75V21.25H21.25V6.75H18.75Z" fill="#1C1B1F"/>
<path fill-rule="evenodd" clip-rule="evenodd" d="M14.0303 1.46967C14.3232 1.76256 14.3232 2.23744 14.0303 2.53033L9.53033 7.03033C9.23744 7.32322 8.76256 7.32322 8.46967 7.03033C8.17678 6.73744 8.17678 6.26256 8.46967 5.96967L12.9697 1.46967C13.2626 1.17678 13.7374 1.17678 14.0303 1.46967Z" fill="#1C1B1F"/>
<path fill-rule="evenodd" clip-rule="evenodd" d="M9.75 2C9.75 1.58579 10.0858 1.25 10.5 1.25H13.5C13.9142 1.25 14.25 1.58579 14.25 2V5C14.25 5.41421 13.9142 5.75 13.5 5.75C13.0858 5.75 12.75 5.41421 12.75 5V2.75H10.5C10.0858 2.75 9.75 2.41421 9.75 2Z" fill="#1C1B1F"/>
<path fill-rule="evenodd" clip-rule="evenodd" d="M2 9.75C2.41421 9.75 2.75 10.0858 2.75 10.5V12.75H5C5.41421 12.75 5.75 13.0858 5.75 13.5C5.75 13.9142 5.41421 14.25 5 14.25H2C1.58579 14.25 1.25 13.9142 1.25 13.5V10.5C1.25 10.0858 1.58579 9.75 2 9.75Z" fill="#1C1B1F"/>
<path fill-rule="evenodd" clip-rule="evenodd" d="M7.03033 8.46967C7.32322 8.76256 7.32322 9.23744 7.03033 9.53033L2.53033 14.0303C2.23744 14.3232 1.76256 14.3232 1.46967 14.0303C1.17678 13.7374 1.17678 13.2626 1.46967 12.9697L5.96967 8.46967C6.26256 8.17678 6.73744 8.17678 7.03033 8.46967Z" fill="#1C1B1F"/>
</svg>
